<svg width="64" height="64" viewBox="0 0 64 64" fill="none" xmlns="http://www.w3.org/2000/svg">
<path d="M13.927 58.177L9.9055 13.0715H54.0945L50.069 58.17L31.973 63.1865L13.927 58.177Z" fill="#E44D26"/>
<path d="M32 59.352L46.622 55.298L50.0625 16.76H32V59.352Z" fill="#F16529"/>
<path d="M32 33.489H24.6795L24.1745 27.8235H32V22.2915H18.1285L18.2605 23.776L19.6205 39.0205H32V33.489ZM32 47.8555L31.9755 47.862L25.815 46.198L25.421 41.7865H19.8675L20.6425 50.4725L31.9745 53.6185L32 53.611V47.8555Z" fill="#EBEBEB"/>
<path d="M14.017 0.813477H16.828V3.59148H19.4V0.813477H22.2115V9.22448H19.4V6.40798H16.8285V9.22448H14.017V0.813477V0.813477ZM25.908 3.60298H23.433V0.813477H31.1955V3.60298H28.7195V9.22448H25.908V3.60298V3.60298ZM32.4275 0.813477H35.3585L37.162 3.76898L38.9635 0.813477H41.896V9.22448H39.0955V5.05548L37.162 8.04598H37.113L35.178 5.05548V9.22448H32.427V0.813477H32.4275ZM43.2955 0.813477H46.1075V6.44448H50.061V9.22498H43.2955V0.813477V0.813477Z" fill="black"/>
<path d="M31.981 33.489V39.0205H38.793L38.151 46.195L31.981 47.8605V53.6155L43.322 50.4725L43.405 49.5375L44.705 34.974L44.84 33.489H43.349H31.981ZM31.981 22.2915V27.8235H45.3435L45.454 26.58L45.7065 23.776L45.839 22.2915H31.981Z" fill="white"/>
</svg>
