<svg width="63" height="63" viewBox="0 0 63 63" fill="none" xmlns="http://www.w3.org/2000/svg">
<path d="M13.6621 10.0509C10.0436 15.2509 10.4939 22.017 13.2585 27.5433L13.4608 27.936L13.5903 28.1851L13.671 28.3283L13.8152 28.5862C13.9009 28.7373 13.989 28.8874 14.079 29.0385L14.2296 29.2866C14.3295 29.4471 14.4314 29.6065 14.5358 29.7655L14.6662 29.9668C14.8104 30.1819 14.9576 30.396 15.1097 30.6071L15.1225 30.6234L15.1973 30.7243C15.3287 30.9054 15.464 31.0846 15.6014 31.2622L15.7534 31.4557C15.876 31.6097 16.0005 31.7623 16.127 31.9154L16.2698 32.0857C16.4396 32.2855 16.6133 32.4853 16.79 32.6802L16.8003 32.6911L16.8205 32.7132C16.9933 32.9017 17.17 33.0863 17.3496 33.2709L17.5189 33.4416C17.6577 33.5814 17.799 33.7187 17.9412 33.8556L18.114 34.02C18.3045 34.1991 18.4964 34.3753 18.6928 34.5466L18.7017 34.5545L18.8025 34.6401C18.9753 34.7902 19.151 34.9379 19.3282 35.0841L19.5458 35.2578C19.6905 35.3735 19.8366 35.4882 19.9838 35.6004L20.2186 35.7781C20.381 35.8977 20.5449 36.0153 20.7103 36.131L20.8889 36.2579L20.9386 36.2934C21.0952 36.4017 21.2561 36.5055 21.4161 36.6094L21.6228 36.7472C21.8689 36.9022 22.1184 37.0563 22.3704 37.2049L22.5771 37.3216C22.7627 37.4284 22.9492 37.5337 23.1382 37.6361L23.4488 37.7965L23.8504 38.0052L23.943 38.05L24.1073 38.1292C24.3175 38.2296 24.5296 38.3286 24.7437 38.4241L24.8781 38.4841C25.1232 38.5914 25.3708 38.6943 25.6203 38.7932L25.8015 38.8641C26.0323 38.9537 26.2666 39.0408 26.5018 39.1235L26.5899 39.154C26.8478 39.2445 27.1087 39.3277 27.371 39.4099L27.5595 39.466C27.8263 39.5467 28.0906 39.6422 28.3658 39.6934C45.8645 42.8843 50.9473 29.1783 50.9473 29.1783C46.6781 34.74 39.1009 36.2068 31.9213 34.5737C31.6491 34.5122 31.3853 34.427 31.12 34.3492L30.9202 34.2882C30.6613 34.209 30.4039 34.1258 30.1485 34.0372L30.0426 33.9993C29.8138 33.9186 29.5879 33.8339 29.3624 33.7468L29.1715 33.672C28.9249 33.5745 28.6793 33.4727 28.4371 33.3668L28.2904 33.3014C28.0823 33.2074 27.876 33.1124 27.6708 33.0134L27.4916 32.9273C27.3307 32.8491 27.1717 32.7659 27.0122 32.6837L26.6928 32.5158C26.4984 32.4125 26.3079 32.3042 26.1184 32.194L25.9245 32.0862C25.672 31.937 25.423 31.7835 25.1764 31.6274L24.9746 31.4931C24.7959 31.3779 24.6177 31.2603 24.4425 31.1392L24.2708 31.0186C24.1014 30.8995 23.9336 30.7779 23.7677 30.6554L23.5448 30.4866C23.3922 30.3699 23.2406 30.2523 23.091 30.1317L22.8887 29.9693C22.6977 29.8127 22.5092 29.6543 22.3232 29.4923L22.2611 29.4407C22.0598 29.264 21.862 29.0823 21.6666 28.9002L21.4992 28.7388C21.3545 28.6015 21.2118 28.4627 21.072 28.3199L20.9047 28.1526C20.7265 27.9705 20.5518 27.7859 20.3805 27.5984L20.3544 27.5703C20.1733 27.3725 19.9961 27.1702 19.8229 26.9654L19.6836 26.8001C19.5541 26.6445 19.4261 26.4861 19.3011 26.3271L19.1609 26.1523C19.0098 25.9569 18.8631 25.762 18.7189 25.5642C14.7331 20.127 13.3009 12.628 16.4868 6.46977M24.8939 5.66947C22.2774 9.43471 22.4191 14.4762 24.4607 18.458C24.8028 19.1254 25.1877 19.7736 25.6179 20.3898C26.0096 20.9524 26.4447 21.6208 26.965 22.0721C27.1535 22.2798 27.3509 22.4826 27.5522 22.6814L27.7067 22.8345C27.9021 23.024 28.101 23.2105 28.3062 23.3917L28.3308 23.4128L28.3367 23.4187C28.5641 23.6181 28.7989 23.8095 29.0371 23.9985L29.1961 24.1226C29.4353 24.3057 29.6789 24.4858 29.9289 24.6576L29.9501 24.6738L30.2848 24.8938L30.4433 24.9987C30.6219 25.1133 30.8026 25.2246 30.9867 25.3314L31.0634 25.3767C31.2219 25.4677 31.3824 25.5573 31.5433 25.6449L31.7141 25.7335L32.0498 25.9077L32.1005 25.9309C32.3313 26.0441 32.5636 26.1538 32.8013 26.2572L32.9559 26.3212C33.1459 26.4014 33.3373 26.4801 33.5303 26.554L33.7764 26.6445C33.9516 26.7095 34.1268 26.7691 34.304 26.8281L34.5422 26.9044C34.7937 26.9822 35.0428 27.0811 35.3046 27.1249C48.8152 29.3629 51.9342 18.9605 51.9342 18.9605C49.1228 23.0102 43.6777 24.9421 37.8674 23.434C37.6095 23.3661 37.3546 23.2922 37.1021 23.213L36.8722 23.1387C36.6926 23.0811 36.5139 23.0191 36.3372 22.9546L36.0956 22.8645C35.9016 22.7897 35.7097 22.7124 35.5192 22.6317L35.3642 22.5663C35.1255 22.4624 34.8907 22.3527 34.6594 22.2385L34.306 22.0588L34.1022 21.954C33.9516 21.8723 33.802 21.7876 33.6548 21.701L33.548 21.6405C33.3649 21.5337 33.1848 21.4239 33.0066 21.3097L32.8432 21.2009L32.4927 20.9686C32.2437 20.7969 32.001 20.6172 31.7623 20.4346L31.5979 20.3047C29.0548 18.297 27.0388 15.5526 26.0805 12.441C25.076 9.21371 25.2925 5.59121 27.0329 2.65089M34.3404 2.39593C32.7979 4.6659 32.6463 7.48564 33.7168 9.99285C34.8454 12.6541 37.1582 14.7415 39.8578 15.7318L40.1935 15.8474L40.3412 15.8947C40.5001 15.9449 40.6581 16.0029 40.8225 16.0335C48.2826 17.4751 50.306 12.2057 50.8444 11.4295C49.0721 13.9815 46.0934 14.5943 42.4384 13.7069C42.15 13.637 41.8325 13.5327 41.5544 13.4337C41.1976 13.3063 40.8462 13.1616 40.5041 12.9977C39.8554 12.6856 39.2367 12.3076 38.6628 11.8745C35.3922 9.39287 33.361 4.6595 35.4951 0.804199" fill="#0868AC"/>
<path d="M32.6611 47.3951H30.5811C30.4659 47.3951 30.3512 47.4877 30.3266 47.6004L29.5883 51.0162L28.8501 54.432C28.8259 54.5447 28.7113 54.6372 28.5961 54.6372H27.124C25.6676 54.6372 25.8359 53.6297 26.1342 52.2496L26.143 52.2078L26.1755 52.0335L26.1814 52.001L26.2479 51.6467L26.3192 51.2672L26.395 50.8808L26.7307 49.2408L27.0669 47.6009C27.09 47.4877 27.0142 47.3947 26.899 47.3947H24.7644C24.6492 47.3947 24.535 47.4872 24.5114 47.6004L24.0522 49.7778L23.5935 51.9558L23.5925 51.9587L23.5502 52.1615C23.0216 54.5747 23.1614 56.8766 26.0347 56.949L26.1184 56.9505H30.6283C30.7435 56.9505 30.8582 56.8579 30.8823 56.7452L31.8549 52.1733L32.8274 47.6009C32.8515 47.4877 32.7767 47.3956 32.6611 47.3951V47.3951ZM10.3866 47.371H8.10288C7.98721 47.371 7.87204 47.4636 7.84645 47.5758L7.62988 48.5316L7.41332 49.4874C7.38822 49.6001 7.46156 49.6922 7.57722 49.6922H9.87869C9.99435 49.6922 10.109 49.5997 10.1336 49.4869L10.3428 48.5316L10.552 47.5763C10.5761 47.4636 10.5023 47.371 10.3866 47.371V47.371ZM9.72414 50.3458H7.42218C7.30701 50.3458 7.19135 50.4383 7.16575 50.5506L6.84238 51.9828L6.51951 53.4146L6.42944 53.8251L6.11887 55.2869L5.80879 56.7492C5.78467 56.8619 5.73496 57.044 5.69805 57.1533C5.69805 57.1533 5.26788 58.4329 4.54485 58.4182L4.45429 58.4162L3.82872 58.4049H3.82823C3.71306 58.4034 3.59739 58.4935 3.57032 58.6052L3.33161 59.6088L3.09339 60.6119C3.06632 60.7241 3.13917 60.8166 3.25385 60.8186C3.66384 60.8235 4.58226 60.8338 5.13794 60.8338C6.94378 60.8338 7.89616 59.8332 8.50598 56.9539L9.22014 53.6494L9.89001 50.5501C9.91413 50.4383 9.83931 50.3458 9.72414 50.3458ZM52.1098 49.5711L52.0144 49.1769L51.9204 48.7733L51.8726 48.5695C51.6856 47.8425 51.1368 47.4237 49.9447 47.4237L48.0892 47.4217L46.3803 47.4193H44.4573C44.3421 47.4193 44.228 47.5118 44.2038 47.6245L44.1187 48.0261L44.0183 48.5006L43.9902 48.634L43.1245 52.6896L42.3025 56.5395C42.2779 56.6527 42.27 56.7915 42.2838 56.8476C42.2976 56.9042 42.5196 56.9505 42.6347 56.9505H44.3692C44.4849 56.9505 44.6311 56.9298 44.6941 56.9042C44.7571 56.8786 44.8501 56.6517 44.8732 56.539L45.1813 55.0137L45.4899 53.4879L45.4904 53.4855L45.5318 53.2822L45.9058 51.53L46.2361 49.9826C46.2607 49.8699 46.3744 49.7778 46.4896 49.7773L51.9474 49.7749C52.0631 49.7759 52.1359 49.6838 52.1098 49.5711V49.5711ZM59.1358 46.0077L58.7155 46.0091H56.9687C56.8531 46.0091 56.7049 46.0874 56.6404 46.1829L52.7773 51.8421C52.7123 51.9375 52.638 51.9238 52.6124 51.8115L52.3279 50.5648C52.3023 50.4521 52.1866 50.3601 52.071 50.3601H49.5879C49.4722 50.3601 49.4038 50.4506 49.4353 50.5614L50.5481 54.46C50.5796 54.5712 50.5821 54.7534 50.5536 54.8656L50.0687 56.7521C50.0397 56.8643 50.1106 56.9554 50.2262 56.9554H52.6808C52.796 56.9554 52.9141 56.8639 52.9426 56.7521L53.4279 54.8656C53.4565 54.7529 53.5367 54.5865 53.6066 54.494L59.878 46.1706C59.9479 46.0781 59.91 46.0028 59.7949 46.0037L59.1358 46.0077V46.0077ZM39.406 50.8897V50.8877C39.3917 51.0127 39.2761 51.1048 39.1604 51.1048H36.0119C35.9026 51.1048 35.8475 51.0309 35.8637 50.9394L35.8667 50.932L35.8647 50.933L35.8662 50.9227L35.8805 50.869C36.1812 50.0697 36.7935 49.545 37.9447 49.545C39.2411 49.5445 39.4941 50.1775 39.406 50.8897V50.8897ZM38.4822 47.2554C34.4408 47.2554 33.483 49.7084 32.9455 52.1846C32.4086 54.7086 32.4543 57.0676 36.637 57.0676H37.1439L37.2699 57.0671H37.2994L37.8015 57.0656H37.8103C38.9148 57.0612 40.0227 57.0529 40.4711 57.0494C40.5858 57.0474 40.698 56.9554 40.7216 56.8427L40.8909 56.0153L40.9239 55.8544L41.1257 54.867C41.1488 54.7543 41.0735 54.6613 40.9579 54.6613H37.198C35.7023 54.6613 35.2583 54.2641 35.4222 53.0957H41.4323L41.4318 53.0962L41.4358 53.0957C41.5313 53.0942 41.6199 53.0282 41.6548 52.9406L41.6691 52.8885L41.6686 52.8889C42.5609 49.5229 42.305 47.2559 38.4822 47.2554V47.2554ZM19.3804 50.8769L19.3233 51.0782V51.0787L18.8695 52.6871L18.4157 54.2951C18.3847 54.4069 18.2641 54.4974 18.1484 54.4974H15.7465C13.9245 54.4974 13.4805 53.072 13.9245 50.9704C14.3679 48.8205 15.2376 47.4842 17.0312 47.3489C19.4823 47.1638 19.9725 48.8875 19.3804 50.8769V50.8769ZM21.0282 54.3739C21.0282 54.3739 22.1607 51.6235 22.4177 50.0357C22.7686 47.91 21.704 44.8259 17.5923 44.8259C13.5041 44.8259 11.7283 47.7697 11.0511 50.9704C10.3738 54.1942 11.2612 57.0209 15.3262 56.9977L18.5333 56.9859L21.5302 56.9751C21.6454 56.9741 21.7635 56.8826 21.7931 56.7713L22.3153 54.7799C22.3443 54.6677 22.2739 54.5762 22.1583 54.5752L21.6577 54.5722L21.1572 54.5693C21.0592 54.5688 21.0031 54.5048 21.0149 54.4206L21.0282 54.3739V54.3739ZM41.267 52.5326C41.267 52.6089 41.2054 52.6709 41.1291 52.6709C41.0534 52.6709 40.9913 52.6089 40.9913 52.5326C40.9913 52.4568 41.0529 52.3953 41.1291 52.3953C41.2054 52.3953 41.267 52.4568 41.267 52.5326Z" fill="#131B28"/>
</svg>
