<svg width="93" height="56" viewBox="0 0 93 56" fill="none" xmlns="http://www.w3.org/2000/svg">
<g clip-path="url(#clip0_6_80)">
<path d="M21.9441 14.6001H39.4847V15.9911H23.552V26.4602H38.5346V27.8512H23.552V39.3453H39.6675V40.7363H21.9441V14.6001ZM41.0561 14.6001H42.9198L51.1785 26.0942L59.6199 14.6001L71.1017 0L52.2382 27.3022L61.9587 40.7363H60.0219L51.1785 28.5101L42.2985 40.7363H40.3983L50.1918 27.3022L41.0561 14.6001ZM62.653 15.9911V14.6001H82.642V15.9911H73.4332V40.7363H71.8253V15.9911H62.653ZM0 14.6001H2.00987L29.7247 55.979L18.2715 40.7363L1.68098 16.5768L1.60789 40.7363H0V14.6001ZM82.48 38.9255C82.1515 38.9255 81.9052 38.6716 81.9052 38.3434C81.9052 38.0152 82.1515 37.7612 82.48 37.7612C82.8125 37.7612 83.0549 38.0152 83.0549 38.3434C83.0549 38.6716 82.8125 38.9255 82.48 38.9255ZM84.06 37.394H84.9204C84.9321 37.8589 85.2723 38.1715 85.7729 38.1715C86.3322 38.1715 86.6489 37.8355 86.6489 37.2064V33.2213H87.5249V37.2103C87.5249 38.3434 86.8679 38.9958 85.7807 38.9958C84.76 38.9958 84.06 38.3629 84.06 37.394ZM88.6708 37.3432H89.539C89.6133 37.8784 90.1373 38.2184 90.8921 38.2184C91.596 38.2184 92.1123 37.855 92.1123 37.3549C92.1123 36.9251 91.7838 36.6673 91.0368 36.4915L90.3094 36.3156C89.2887 36.0773 88.8233 35.585 88.8233 34.7567C88.8233 33.7526 89.6446 33.0845 90.8765 33.0845C92.0223 33.0845 92.8592 33.7526 92.91 34.702H92.0575C91.9754 34.1824 91.5217 33.8581 90.8647 33.8581C90.1725 33.8581 89.7111 34.1902 89.7111 34.6981C89.7111 35.1006 90.0083 35.3311 90.7435 35.503L91.3653 35.6554C92.5229 35.9249 93 36.3938 93 37.2416C93 38.3199 92.1631 38.9958 90.8256 38.9958C89.5742 38.9958 88.7334 38.3512 88.6708 37.3432Z" fill="black"/>
</g>
<defs>
<clipPath id="clip0_6_80">
<rect width="93" height="56" fill="white"/>
</clipPath>
</defs>
</svg>
