<svg width="64" height="64" viewBox="0 0 64 64" fill="none" xmlns="http://www.w3.org/2000/svg">
<g clip-path="url(#clip0_6_97)">
<path fill-rule="evenodd" clip-rule="evenodd" d="M32 0.755981C20.2535 0.755981 10.7275 10.2795 10.7275 22.0285C10.7275 31.427 16.8225 39.401 25.275 42.2135C26.338 42.4105 26.7285 41.752 26.7285 41.19C26.7285 40.683 26.7085 39.007 26.6995 37.23C20.781 38.5165 19.5325 34.72 19.5325 34.72C18.565 32.261 17.1705 31.607 17.1705 31.607C15.2405 30.287 17.3155 30.314 17.3155 30.314C19.452 30.464 20.577 32.5065 20.577 32.5065C22.474 35.7585 25.5535 34.818 26.767 34.2745C26.9585 32.8995 27.5095 31.9605 28.118 31.4295C23.393 30.892 18.426 29.0675 18.426 20.9165C18.426 18.594 19.257 16.6965 20.618 15.2065C20.397 14.6705 19.669 12.5065 20.824 9.57648C20.824 9.57648 22.61 9.00548 26.674 11.758C28.3715 11.2865 30.1915 11.05 31.999 11.042C33.807 11.0505 35.628 11.287 37.328 11.758C41.388 9.00598 43.172 9.57698 43.172 9.57698C44.33 12.507 43.602 14.6705 43.381 15.207C44.745 16.696 45.57 18.594 45.57 20.917C45.57 29.087 40.5935 30.886 35.8565 31.412C36.6195 32.072 37.2995 33.367 37.2995 35.352C37.2995 38.198 37.2755 40.4885 37.2755 41.189C37.2755 41.754 37.6585 42.418 38.7365 42.209C47.1845 39.393 53.2715 31.422 53.2715 22.0265C53.2725 10.28 43.7485 0.755981 32 0.755981Z" fill="#181616"/>
<path d="M18.785 31.298C18.7375 31.404 18.571 31.4355 18.42 31.363C18.265 31.293 18.179 31.1495 18.229 31.043C18.274 30.935 18.441 30.9045 18.5955 30.977C18.7505 31.047 18.8385 31.192 18.7855 31.298H18.785ZM19.6465 32.26C19.545 32.3535 19.3465 32.31 19.2115 32.161C19.0725 32.0125 19.0465 31.814 19.1495 31.719C19.2535 31.625 19.446 31.669 19.5845 31.8175C19.7245 31.9675 19.752 32.164 19.646 32.2595L19.6465 32.26ZM20.485 33.484C20.355 33.575 20.1415 33.49 20.01 33.3005C19.879 33.112 19.879 32.8855 20.0125 32.794C20.1445 32.703 20.3545 32.785 20.4875 32.9725C20.6185 33.165 20.6185 33.3925 20.485 33.4845V33.484ZM21.634 34.668C21.5175 34.7965 21.269 34.762 21.0875 34.5865C20.9015 34.415 20.85 34.1715 20.9665 34.043C21.085 33.9145 21.3345 33.9505 21.5175 34.1245C21.7025 34.2955 21.7585 34.5395 21.634 34.6675V34.668ZM23.22 35.355C23.168 35.522 22.929 35.5975 22.688 35.527C22.447 35.454 22.29 35.259 22.338 35.091C22.388 34.923 22.629 34.8445 22.8715 34.92C23.1115 34.992 23.269 35.185 23.2195 35.355H23.22ZM24.96 35.4825C24.9665 35.6575 24.762 35.8035 24.509 35.8065C24.255 35.8125 24.049 35.6705 24.046 35.4975C24.046 35.3205 24.246 35.1765 24.5 35.1725C24.753 35.1675 24.96 35.3085 24.96 35.4825ZM26.58 35.207C26.61 35.378 26.435 35.554 26.1835 35.6005C25.9365 35.6465 25.7085 35.5405 25.6765 35.3705C25.6465 35.1955 25.825 35.0205 26.0715 34.9745C26.323 34.9305 26.548 35.0335 26.58 35.2075V35.207Z" fill="#181616"/>
<path d="M12.4275 54.151H7.0775C7.0112 54.151 6.94761 54.1773 6.90072 54.2242C6.85384 54.2711 6.8275 54.3347 6.8275 54.401V57.017C6.8275 57.0833 6.85384 57.1469 6.90072 57.1938C6.94761 57.2407 7.0112 57.267 7.0775 57.267H9.164V60.517C9.164 60.517 8.6955 60.677 7.399 60.677C5.871 60.677 3.7355 60.119 3.7355 55.423C3.7355 50.7265 5.9595 50.108 8.0475 50.108C9.8545 50.108 10.6325 50.426 11.1285 50.5795C11.2835 50.6265 11.4285 50.4715 11.4285 50.3335L12.025 47.806C12.026 47.7682 12.0177 47.7306 12.001 47.6967C11.9843 47.6627 11.9596 47.6333 11.929 47.611C11.7275 47.467 10.5005 46.781 7.4 46.781C3.828 46.781 0.164001 48.3 0.164001 55.606C0.164001 62.911 4.359 63.9995 7.894 63.9995C10.821 63.9995 12.5965 62.7485 12.5965 62.7485C12.6695 62.7085 12.6775 62.606 12.6775 62.5585V54.4005C12.6775 54.3342 12.6512 54.2706 12.6043 54.2237C12.5574 54.1768 12.4938 54.1505 12.4275 54.1505V54.151ZM39.753 47.405H36.74C36.7071 47.4051 36.6746 47.4118 36.6443 47.4245C36.614 47.4372 36.5865 47.4558 36.5633 47.4791C36.5402 47.5025 36.5219 47.5302 36.5095 47.5606C36.4971 47.591 36.4908 47.6236 36.491 47.6565L36.492 53.4785H31.796V47.6565C31.7962 47.6237 31.7899 47.5911 31.7775 47.5607C31.7652 47.5303 31.7469 47.5026 31.7238 47.4793C31.7008 47.4559 31.6733 47.4374 31.6431 47.4246C31.6128 47.4119 31.5803 47.4052 31.5475 47.405H28.535C28.5021 47.4051 28.4696 47.4118 28.4393 47.4245C28.409 47.4372 28.3815 47.4558 28.3583 47.4791C28.3352 47.5025 28.3169 47.5302 28.3045 47.5606C28.2921 47.591 28.2858 47.6236 28.286 47.6565V63.4215C28.286 63.56 28.398 63.673 28.535 63.673H31.5475C31.5804 63.6728 31.6129 63.6661 31.6432 63.6534C31.6735 63.6406 31.7009 63.622 31.724 63.5985C31.7471 63.5751 31.7653 63.5474 31.7777 63.5169C31.79 63.4865 31.7963 63.4539 31.796 63.421V56.678H36.492L36.484 63.421C36.484 63.56 36.596 63.673 36.734 63.673H39.753C39.7859 63.6728 39.8184 63.6661 39.8487 63.6534C39.879 63.6406 39.9064 63.622 39.9295 63.5985C39.9526 63.5751 39.9708 63.5474 39.9832 63.5169C39.9955 63.4865 40.0018 63.4539 40.0015 63.421V47.656C40.0015 47.517 39.8915 47.405 39.753 47.405V47.405ZM16.17 47.7635C15.098 47.7635 14.228 48.64 14.228 49.725C14.228 50.8085 15.098 51.6875 16.17 51.6875C17.243 51.6875 18.1125 50.8085 18.1125 49.725C18.1125 48.64 17.2425 47.7635 16.17 47.7635ZM17.648 52.5675H14.645C14.507 52.5675 14.384 52.7095 14.384 52.8475V63.2735C14.384 63.58 14.575 63.671 14.822 63.671H17.527C17.8245 63.671 17.897 63.525 17.897 63.2685V60.0955V52.819C17.8971 52.7862 17.8908 52.7536 17.8784 52.7233C17.8659 52.6929 17.8476 52.6652 17.8245 52.6419C17.8014 52.6186 17.7739 52.6001 17.7436 52.5874C17.7133 52.5747 17.6808 52.5681 17.648 52.568V52.5675ZM51.451 52.591H48.461C48.4282 52.5913 48.3957 52.598 48.3655 52.6108C48.3352 52.6236 48.3078 52.6422 48.2848 52.6656C48.2618 52.689 48.2436 52.7168 48.2313 52.7472C48.2189 52.7776 48.2127 52.8102 48.213 52.843V60.573C48.213 60.573 47.453 61.128 46.3755 61.128C45.298 61.128 45.012 60.6395 45.012 59.584V52.843C45.0123 52.8101 45.006 52.7775 44.9937 52.7471C44.9813 52.7166 44.9631 52.6889 44.94 52.6655C44.9169 52.6421 44.8895 52.6234 44.8592 52.6107C44.8289 52.5979 44.7964 52.5912 44.7635 52.591H41.7295C41.6631 52.5915 41.5996 52.6184 41.553 52.6656C41.5063 52.7128 41.4802 52.7766 41.4805 52.843V60.094C41.4805 63.229 43.228 63.996 45.6315 63.996C47.6035 63.996 49.1935 62.906 49.1935 62.906C49.1935 62.906 49.2685 63.481 49.3035 63.5485C49.3385 63.6165 49.427 63.685 49.5235 63.685L51.4535 63.6765C51.4865 63.6764 51.5191 63.6698 51.5495 63.657C51.5799 63.6443 51.6075 63.6257 51.6307 63.6023C51.6539 63.5789 51.6723 63.5511 51.6848 63.5206C51.6973 63.4901 51.7036 63.4575 51.7035 63.4245L51.702 52.8415C51.7017 52.7752 51.6753 52.7117 51.6285 52.6647C51.5817 52.6177 51.5183 52.591 51.452 52.5905L51.451 52.591ZM59.622 52.237C57.924 52.237 56.769 52.9945 56.769 52.9945V47.656C56.7692 47.6232 56.7629 47.5906 56.7505 47.5602C56.7382 47.5298 56.7199 47.5021 56.6968 47.4788C56.6738 47.4554 56.6463 47.4369 56.6161 47.4241C56.5858 47.4114 56.5533 47.4047 56.5205 47.4045H53.5C53.467 47.4045 53.4344 47.411 53.404 47.4237C53.3736 47.4363 53.3459 47.4549 53.3227 47.4783C53.2995 47.5016 53.2811 47.5294 53.2686 47.5599C53.2561 47.5904 53.2498 47.623 53.25 47.656V63.421C53.2498 63.454 53.2561 63.4866 53.2686 63.5171C53.2811 63.5476 53.2995 63.5754 53.3227 63.5988C53.3459 63.6221 53.3736 63.6407 53.404 63.6533C53.4344 63.666 53.467 63.6725 53.5 63.6725H55.596C55.691 63.6725 55.762 63.624 55.8145 63.5385C55.866 63.4535 55.9415 62.8115 55.9415 62.8115C55.9415 62.8115 57.1765 63.9815 59.5155 63.9815C62.2605 63.9815 63.8355 62.5895 63.8355 57.7305C63.8355 52.8715 61.3205 52.2365 59.6215 52.2365L59.622 52.237ZM58.442 61.119C57.4055 61.0875 56.702 60.617 56.702 60.617V55.6245C56.702 55.6245 57.396 55.1995 58.247 55.1225C59.3235 55.026 60.361 55.3515 60.361 57.9195C60.361 60.628 59.8935 61.1625 58.4425 61.1185L58.442 61.119ZM26.5975 61.06C26.466 61.06 26.129 61.1135 25.7825 61.1135C24.6725 61.1135 24.296 60.5975 24.296 59.9295V55.4965H26.556C26.589 55.4965 26.6217 55.49 26.6521 55.4773C26.6826 55.4646 26.7102 55.446 26.7335 55.4226C26.7567 55.3992 26.7751 55.3714 26.7875 55.3408C26.8 55.3102 26.8063 55.2775 26.806 55.2445V52.8165C26.8061 52.7836 26.7998 52.751 26.7873 52.7205C26.7748 52.6901 26.7564 52.6624 26.7331 52.6391C26.7099 52.6158 26.6823 52.5973 26.6519 52.5846C26.6215 52.572 26.5889 52.5655 26.556 52.5655H24.296L24.2925 49.5805C24.2925 49.467 24.2345 49.4105 24.1035 49.4105H21.0235C20.9045 49.4105 20.84 49.4635 20.84 49.578V52.663C20.84 52.663 19.2965 53.0355 19.1925 53.0655C19.1406 53.0807 19.095 53.1122 19.0625 53.1555C19.03 53.1988 19.0125 53.2514 19.0125 53.3055V55.244C19.0123 55.2768 19.0186 55.3094 19.031 55.3398C19.0433 55.3702 19.0616 55.3979 19.0847 55.4212C19.1077 55.4446 19.1352 55.4632 19.1654 55.4759C19.1957 55.4887 19.2282 55.4953 19.261 55.4955H20.84V60.1595C20.84 63.6245 23.27 63.9645 24.91 63.9645C25.6585 63.9645 26.555 63.7245 26.703 63.6695C26.793 63.636 26.8445 63.5435 26.8445 63.443L26.8465 61.3105C26.8455 61.2444 26.8188 61.1813 26.7722 61.1345C26.7256 61.0877 26.6626 61.0608 26.5965 61.0595L26.5975 61.06Z" fill="#100E0F"/>
</g>
<defs>
<clipPath id="clip0_6_97">
<rect width="64" height="64" fill="white"/>
</clipPath>
</defs>
</svg>
