<svg width="64" height="64" viewBox="0 0 64 64" fill="none" xmlns="http://www.w3.org/2000/svg">
<path d="M44.617 2.92802H40.925L44.7645 7.09452V9.07802H36.8565V6.75552H40.6955L36.8565 2.58902V0.603516H44.617V2.92802V2.92802ZM35.2885 2.92802H31.5965L35.436 7.09452V9.07802H27.5275V6.75552H31.367L27.5275 2.58902V0.603516H35.2885V2.92802V2.92802ZM26.0515 3.02302H22.0675V6.65852H26.0515V9.07802H19.2355V0.603516H26.0515V3.02302V3.02302Z" fill="#131313"/>
<path d="M13.8065 58.353L9.758 12.9465H54.2415L50.1895 58.3455L31.9725 63.3965L13.8065 58.353V58.353Z" fill="#1572B6"/>
<path d="M32.0005 59.536L46.72 55.455L50.183 16.6595H32.0005V59.536Z" fill="#33A9DC"/>
<path d="M32 33.11H39.369L39.8785 27.4075H32V21.8385H45.9645L45.831 23.3325L44.4625 38.6785H32V33.11V33.11Z" fill="white"/>
<path d="M32.0335 47.573L32.009 47.58L25.807 45.905L25.41 41.4635H19.8205L20.601 50.2075L32.008 53.374L32.034 53.3665V47.573H32.0335Z" fill="#EBEBEB"/>
<path d="M38.896 38.443L38.225 45.901L32.014 47.5775V53.3715L43.4305 50.2075L43.5145 49.2665L44.4835 38.443H38.896V38.443Z" fill="white"/>
<path d="M32.0195 21.8385V27.407H18.568L18.456 26.1555L18.2025 23.3325L18.069 21.8385H32.0195ZM32 33.1105V38.6795H25.8765L25.765 37.428L25.511 34.6045L25.3775 33.1105H32V33.1105Z" fill="#EBEBEB"/>
</svg>
