<svg width="61" height="61" viewBox="0 0 61 61" fill="none" xmlns="http://www.w3.org/2000/svg">
<path d="M7.625 12.7083C7.625 9.90106 9.90106 7.625 12.7083 7.625H48.2917C51.0989 7.625 53.375 9.90106 53.375 12.7083V48.2917C53.375 51.0989 51.0989 53.375 48.2917 53.375H12.7083C9.90106 53.375 7.625 51.0989 7.625 48.2917V12.7083Z" fill="#FF5722"/>
<path d="M11.4375 11.4375V49.5625H49.5625V11.4375H11.4375ZM30.1073 39.3958L29.1389 35.6977H24.1624L23.1953 39.3958H19.3357L24.982 21.3259H28.3205L34.005 39.3958H30.1073ZM39.2052 39.3958H35.6812V25.9682H39.2052V39.3958ZM38.8265 23.8332C38.4821 24.189 38.0182 24.367 37.4299 24.367C36.8415 24.367 36.3776 24.189 36.0332 23.8332C35.6888 23.4774 35.5185 23.03 35.5185 22.4925C35.5185 21.946 35.6926 21.5 36.0396 21.1517C36.3865 20.8035 36.8516 20.6307 37.4299 20.6307C38.0081 20.6307 38.4719 20.8048 38.8201 21.1517C39.1684 21.4987 39.3412 21.946 39.3412 22.4925C39.3412 23.03 39.1696 23.4774 38.8265 23.8332Z" fill="#1C0802"/>
<path d="M24.9579 32.6566H28.3332L26.6456 26.2161L24.9579 32.6566Z" fill="#1C0802"/>
</svg>
