<svg width="66" height="66" viewBox="0 0 66 66" fill="none" xmlns="http://www.w3.org/2000/svg">
<path d="M54.8171 35.6895C52.7024 35.7005 50.8709 36.2079 49.3364 36.9655C48.7754 35.8449 48.2061 34.859 48.1112 34.1261C47.9999 33.2709 47.8706 32.7594 48.0054 31.7405C48.1401 30.7216 48.73 29.2779 48.7217 29.1693C48.7135 29.0606 48.5897 28.5423 47.3701 28.5326C46.1505 28.5244 45.1069 28.7678 44.9845 29.0895C44.8621 29.4113 44.627 30.1359 44.4812 30.8921C44.2681 31.9976 42.0461 35.9425 40.7852 38.005C40.3727 37.1993 40.0221 36.4898 39.9492 35.9288C39.8379 35.0735 39.7086 34.562 39.8434 33.5431C39.9781 32.5243 40.568 31.0805 40.5597 30.9719C40.5515 30.8633 40.4277 30.3449 39.2081 30.3353C37.9885 30.327 36.9449 30.5704 36.8225 30.8921C36.7001 31.2139 36.5681 31.966 36.3192 32.6948C36.069 33.4221 33.1169 40.0015 32.3427 41.7079C31.9481 42.5769 31.6057 43.2754 31.3637 43.7511C31.3624 43.7498 31.3624 43.7484 31.3624 43.7484C31.3624 43.7484 31.3472 43.78 31.3225 43.8336C31.1149 44.2393 30.9925 44.4634 30.9925 44.4634C30.9925 44.4634 30.9939 44.4661 30.9966 44.4716C30.8316 44.77 30.6556 45.0464 30.569 45.0464C30.5085 45.0464 30.3861 44.253 30.5951 43.164C31.0351 40.8815 32.0897 37.323 32.0801 37.1993C32.0746 37.136 32.2767 36.5159 31.3912 36.1914C30.5305 35.8765 30.2239 36.4018 30.1455 36.4031C30.0699 36.4045 30.0135 36.5888 30.0135 36.5888C30.0135 36.5888 30.9719 32.5861 28.1847 32.5861C26.4412 32.5861 24.0267 34.4933 22.8374 36.2216C22.0866 36.6314 20.4792 37.5086 18.7756 38.445C18.1211 38.8053 17.4529 39.1724 16.819 39.5216C16.7764 39.4735 16.7324 39.4268 16.6884 39.3786C13.3072 35.772 7.05925 33.2214 7.32325 28.3718C7.4195 26.609 8.03275 21.967 19.3311 16.3378C28.5862 11.726 35.9961 12.9951 37.2762 15.807C39.105 19.8261 33.3162 27.2938 23.705 28.3718C20.0434 28.7829 18.1142 27.3625 17.6344 26.8345C17.1297 26.2776 17.0541 26.2529 16.8657 26.3574C16.5591 26.5279 16.753 27.0188 16.8657 27.3116C17.1531 28.0583 18.3301 29.3824 20.3376 30.0424C22.1045 30.6226 26.4041 30.9403 31.603 28.9286C37.4275 26.6764 41.9746 20.4091 40.6381 15.1718C39.2796 9.84501 30.4466 8.09326 22.0866 11.0633C17.105 12.8315 11.7191 15.6063 7.84575 19.228C3.24087 23.5345 2.50662 27.2841 2.80912 28.8503C3.88437 34.4163 11.5555 38.0408 14.6272 40.7261C14.476 40.81 14.333 40.8884 14.2037 40.9599C12.6637 41.7216 6.81587 44.7824 5.35287 48.015C3.69325 51.6821 5.61687 54.3139 6.89012 54.6686C10.835 55.7659 14.883 53.7914 17.0596 50.5464C19.2349 47.3028 18.9695 43.0774 17.9712 41.1496C17.9589 41.1263 17.9451 41.1029 17.9327 41.0781C18.3301 40.843 18.7357 40.6038 19.1372 40.3673C19.921 39.9066 20.691 39.4776 21.3579 39.1146C20.9839 40.1376 20.7102 41.3655 20.5686 43.1379C20.4009 45.2196 21.2547 47.9105 22.3712 48.9693C22.8635 49.4354 23.4547 49.4464 23.8287 49.4464C25.1281 49.4464 25.7207 48.3656 26.3739 47.0869C27.1741 45.5194 27.885 43.6934 27.885 43.6934C27.885 43.6934 26.994 48.6241 29.4222 48.6241C30.3077 48.6241 31.1974 47.476 31.5947 46.8916C31.5961 46.8985 31.5961 46.9013 31.5961 46.9013C31.5961 46.9013 31.6195 46.8628 31.6649 46.7871C31.757 46.6469 31.8092 46.5575 31.8092 46.5575C31.8092 46.5575 31.8106 46.5479 31.8134 46.5314C32.1695 45.914 32.9587 44.506 34.1412 42.1836C35.6702 39.1834 37.136 35.4241 37.136 35.4241C37.136 35.4241 37.2721 36.3426 37.719 37.8634C37.9816 38.7571 38.5399 39.7458 38.9812 40.6945C38.6265 41.1868 38.4092 41.4686 38.4092 41.4686C38.4092 41.4686 38.4106 41.4741 38.4147 41.4838C38.1315 41.8605 37.8139 42.2661 37.4811 42.6621C36.2739 44.099 34.837 45.7408 34.6445 46.2138C34.4176 46.772 34.4712 47.1818 34.9099 47.5131C35.2302 47.7538 35.7995 47.7923 36.3949 47.7524C37.4797 47.6795 38.2415 47.41 38.6182 47.2464C39.2054 47.0388 39.8887 46.7129 40.5295 46.2413C41.7134 45.3709 42.427 44.1265 42.3582 42.4765C42.3197 41.5676 42.031 40.667 41.6639 39.8173C41.7711 39.6633 41.8784 39.5065 41.987 39.3498C43.8529 36.6218 45.3007 33.6243 45.3007 33.6243C45.3007 33.6243 45.4369 34.5428 45.8837 36.0635C46.1092 36.8321 46.5561 37.6723 46.9576 38.4945C45.2031 39.9204 44.1155 41.5773 43.7374 42.6635C43.0389 44.6738 43.5861 45.584 44.6119 45.7916C45.0766 45.8851 45.7339 45.672 46.2275 45.463C46.8421 45.2595 47.5805 44.9199 48.2707 44.4125C49.4546 43.5421 50.5931 42.3239 50.5244 40.6753C50.4927 39.9245 50.2892 39.1793 50.0129 38.4643C51.5006 37.8441 53.4256 37.5004 55.8786 37.7864C61.1407 38.401 62.172 41.6859 61.9754 43.0609C61.7774 44.4359 60.6746 45.1921 60.3047 45.4204C59.9362 45.6486 59.8235 45.7284 59.8537 45.8975C59.8991 46.1436 60.0696 46.1354 60.3845 46.0818C60.8176 46.0089 63.1469 44.9639 63.2472 42.4256C63.3724 39.1999 60.2855 35.6606 54.8171 35.6895ZM14.2587 49.3625C12.5152 51.2641 10.0815 51.9819 9.0365 51.3769C7.909 50.7238 8.35587 47.9243 10.494 45.9058C11.7975 44.6765 13.4805 43.5435 14.597 42.8464C14.8514 42.6938 15.224 42.4696 15.6777 42.1974C15.7534 42.1548 15.796 42.1314 15.796 42.1314L15.7946 42.1286C15.8826 42.0764 15.972 42.0228 16.0641 41.9664C16.8437 44.8388 16.0889 47.3674 14.2587 49.3625ZM26.9569 40.7316C26.3505 42.2111 25.08 45.9979 24.3059 45.7944C23.6417 45.6198 23.2375 42.7419 24.1739 39.9094C24.6441 38.4835 25.6506 36.7799 26.2419 36.1185C27.1934 35.0543 28.2411 34.7064 28.4955 35.1381C28.8186 35.6881 27.3377 39.8035 26.9569 40.7316ZM37.4467 45.7366C37.1896 45.8714 36.9531 45.9553 36.8445 45.8906C36.7634 45.8425 36.9504 45.6651 36.9504 45.6651C36.9504 45.6651 38.2621 44.253 38.7791 43.6109C39.0802 43.2369 39.4281 42.7928 39.8076 42.2978C39.8104 42.3473 39.8117 42.3968 39.8117 42.4449C39.809 44.1361 38.1755 45.2774 37.4467 45.7366ZM45.5276 43.8941C45.3351 43.758 45.3681 43.3166 45.9992 41.9403C46.2467 41.3999 46.8132 40.491 47.795 39.622C47.9091 39.9795 47.9779 40.3219 47.9765 40.6409C47.9641 42.7694 46.4461 43.5641 45.5276 43.8941Z" fill="#F06292"/>
</svg>
