<svg width="63" height="63" viewBox="0 0 63 63" fill="none" xmlns="http://www.w3.org/2000/svg">
<path d="M8.9775 31.5C8.9775 28.245 9.68625 25.1475 10.92 22.3125L21.6825 51.765C14.1488 48.1162 8.9775 40.425 8.9775 31.5ZM46.6988 30.3712C46.6988 32.2875 45.9375 34.5188 44.9925 37.6425L42.735 45.15L34.5975 21L37.17 20.7375C38.4037 20.58 38.2462 18.795 37.0387 18.8738C37.0387 18.8738 33.39 19.1625 31.0275 19.1625L25.095 18.8738C23.8875 18.795 23.7563 20.6588 24.9375 20.7375L27.3262 21L30.8438 30.555L25.9087 45.3338L17.6925 21L20.2913 20.7375C21.4988 20.58 21.3413 18.795 20.1338 18.8738C20.1338 18.8738 16.485 19.1625 14.1225 19.1625L12.6787 19.1362C16.7212 13.02 23.625 8.9775 31.5 8.9775C37.3538 8.9775 42.7088 11.235 46.6988 14.8838H46.41C44.205 14.8838 42.63 16.8 42.63 18.8738C42.63 20.7375 43.7062 22.3125 44.835 24.15C45.7012 25.6462 46.6988 27.5625 46.6988 30.3712ZM31.8937 33.4688L38.8237 52.4212L38.9813 52.7363C36.645 53.5763 34.125 54.0225 31.5 54.0225C29.295 54.0225 27.1687 53.7075 25.1475 53.1037L31.8937 33.4688ZM51.2663 20.685C53.025 23.9138 54.0225 27.5625 54.0225 31.5C54.0225 39.795 49.5075 47.0662 42.8137 50.9512L49.6913 31.08C50.9775 27.8775 51.4238 25.305 51.4238 23.0213L51.2663 20.685ZM31.5 5.25C45.99 5.25 57.75 17.01 57.75 31.5C57.75 45.99 45.99 57.75 31.5 57.75C17.01 57.75 5.25 45.99 5.25 31.5C5.25 17.01 17.01 5.25 31.5 5.25ZM31.5 56.5425C45.3075 56.5425 56.5425 45.3075 56.5425 31.5C56.5425 17.6925 45.3075 6.4575 31.5 6.4575C17.6925 6.4575 6.4575 17.6925 6.4575 31.5C6.4575 45.3075 17.6925 56.5425 31.5 56.5425Z" fill="black"/>
</svg>
