<svg width="56" height="56" viewBox="0 0 56 56" fill="none" xmlns="http://www.w3.org/2000/svg">
<path d="M30.3333 19.8333H21C16.4897 19.8333 12.8333 16.177 12.8333 11.6667C12.8333 7.15633 16.4897 3.5 21 3.5H30.3333V19.8333Z" fill="#E64A19"/>
<path d="M29.1667 36.1667H21C16.4897 36.1667 12.8333 32.5104 12.8333 28C12.8333 23.4897 16.4897 19.8334 21 19.8334H29.1667V36.1667Z" fill="#7C4DFF"/>
<path d="M21 52.5C16.4897 52.5 12.8333 48.8436 12.8333 44.3333C12.8333 39.823 16.4897 36.1666 21 36.1666H29.1667V44.3333C29.1667 48.8436 25.5103 52.5 21 52.5Z" fill="#66BB6A"/>
<path d="M37.3333 19.8333H29.1667V3.5H37.3333C41.8437 3.5 45.5 7.15633 45.5 11.6667C45.5 16.177 41.8437 19.8333 37.3333 19.8333Z" fill="#FF7043"/>
<path d="M37.3333 36.1667C41.8437 36.1667 45.5 32.5104 45.5 28C45.5 23.4897 41.8437 19.8334 37.3333 19.8334C32.823 19.8334 29.1667 23.4897 29.1667 28C29.1667 32.5104 32.823 36.1667 37.3333 36.1667Z" fill="#29B6F6"/>
</svg>
