<svg width="60" height="60" viewBox="0 0 60 60" fill="none" xmlns="http://www.w3.org/2000/svg">
<path d="M7.5 12.5C7.5 9.73875 9.73875 7.5 12.5 7.5H47.5C50.2613 7.5 52.5 9.73875 52.5 12.5V47.5C52.5 50.2613 50.2613 52.5 47.5 52.5H12.5C9.73875 52.5 7.5 50.2613 7.5 47.5V12.5Z" fill="#03A9F4"/>
<path d="M25.02 23.9675H22.5175V29.51H24.9838C25.6675 29.51 26.1963 29.2863 26.5713 28.8388C26.9463 28.3913 27.1325 27.74 27.1325 26.885C27.1325 25.9975 26.9413 25.2925 26.5588 24.7675C26.1763 24.2425 25.6625 23.9763 25.02 23.9675Z" fill="#020F16"/>
<path d="M11.25 11.25V48.75H48.75V11.25H11.25ZM29.2062 30.9862C28.1737 31.9962 26.7412 32.5 24.91 32.5H22.5175V38.75H18.9287V20.9763H24.9837C26.7412 20.9763 28.1437 21.5225 29.1887 22.6125C30.2337 23.7025 30.7575 25.1188 30.7575 26.86C30.7575 28.6013 30.24 29.9762 29.2062 30.9862ZM40.8525 37.92C39.9662 38.6363 38.8012 38.9937 37.3612 38.9937C36.3925 38.9937 35.5375 38.805 34.7975 38.4262C34.0575 38.0475 33.4762 37.52 33.0575 36.845C32.6387 36.17 32.4288 35.4413 32.4288 34.66H35.7125C35.73 35.2613 35.8687 35.7138 36.1337 36.015C36.3987 36.3163 36.8313 36.4663 37.4338 36.4663C38.3613 36.4663 38.825 36.0475 38.825 35.2087C38.825 34.9162 38.685 34.645 38.4037 34.3975C38.1225 34.15 37.5 33.815 36.5313 33.3912C35.1075 32.8137 34.1287 32.2163 33.595 31.5963C33.0612 30.9763 32.795 30.2087 32.795 29.2887C32.795 28.1325 33.2125 27.1788 34.0462 26.4263C34.88 25.6738 35.9863 25.2975 37.36 25.2975C38.8075 25.2975 39.9675 25.6725 40.8388 26.42C41.71 27.1675 42.145 28.1738 42.145 29.435H38.69C38.69 28.3613 38.2438 27.8238 37.3475 27.8238C36.9813 27.8238 36.6813 27.9375 36.4438 28.165C36.2063 28.3925 36.09 28.7113 36.09 29.1175C36.09 29.41 36.22 29.6687 36.4812 29.8925C36.7425 30.1162 37.355 30.4362 38.325 30.8512C39.7337 31.3725 40.7275 31.9525 41.31 32.5912C41.8925 33.23 42.1825 34.0587 42.1825 35.075C42.1825 36.2562 41.7387 37.2038 40.8525 37.92Z" fill="#020F16"/>
</svg>
